<?xml version="1.0" standalone="no"?><!DOCTYPE svg PUBLIC "-//W3C//DTD SVG 1.1//EN" "http://www.w3.org/Graphics/SVG/1.1/DTD/svg11.dtd"><svg t="1638550764211" class="icon" viewBox="0 0 1024 1024" version="1.1" xmlns="http://www.w3.org/2000/svg" p-id="6040" xmlns:xlink="http://www.w3.org/1999/xlink" width="200" height="200"><defs><style type="text/css"></style></defs><path d="M931.374545 986.918788c-151.272727 26.949818-279.272727-66.978909-279.272727-66.978909-29.789091 6.780121-60.974545 10.488242-93.090909 10.488242-24.358788 0-48.252121-2.094545-71.369697-6.299151-153.6-72.300606-255.224242-197.694061-255.224242-340.185212 0-169.285818 125.362424-295.330909 321.163636-347.291152 1.861818-0.155152 3.568485-0.155152 5.430303-0.155151 209.92 0 380.121212 155.415273 380.121212 346.965333 0 84.402424-33.047273 161.698909-87.815757 221.742545a53.977212 53.977212 0 0 0-12.722425 45.831758c3.10303 17.268364 11.326061 41.146182 30.72 71.323151 23.272727 36.32097 62.060606 64.558545 62.060606 64.558546z" fill="#FFDA44" p-id="6041"></path><path d="M931.374545 986.918788c-36.150303 6.516364-70.904242 6.050909-102.865454 1.551515 3.258182-0.465455 6.516364-0.930909 9.774545-1.551515 0 0-38.787879-28.237576-62.060606-64.54303-19.393939-30.254545-27.61697-53.992727-30.72-71.369697-3.10303-16.446061 1.706667-33.512727 12.722425-45.769697 54.768485-60.043636 87.815758-137.309091 87.815757-221.711516 0-170.356364-134.516364-312.164848-311.854545-341.488484 6.361212-1.861818 12.877576-3.723636 19.393939-5.430303 1.861818-0.155152 3.568485-0.155152 5.430303-0.155152 209.92 0 380.121212 155.461818 380.121212 347.073939 0 84.402424-33.047273 161.667879-87.815757 221.711516a53.837576 53.837576 0 0 0-12.722425 45.769697c3.10303 17.37697 11.326061 41.115152 30.72 71.369697 23.272727 36.305455 62.060606 64.54303 62.060606 64.54303z" fill="#FFC145" p-id="6042"></path><path d="M906.503758 516.313212a307.386182 307.386182 0 0 0-42.40291-93.789091 24.715636 24.715636 0 0 1 4.499394-32.442182c10.565818-8.874667 26.174061-6.469818 33.916122 5.12a357.438061 357.438061 0 0 1 48.826181 108.140606c3.568485 13.684364-4.856242 27.67903-18.261333 30.285576-11.853576 2.311758-23.427879-5.197576-26.577454-17.314909z" fill="#14145B" p-id="6043"></path><path d="M875.411394 1022.464c-110.964364 0-200.331636-52.19297-227.995152-70.299152a440.304485 440.304485 0 0 1-88.389818 8.936728c-222.425212 0-403.393939-166.508606-403.393939-371.184485s180.968727-371.184485 403.393939-371.184485c102.725818 0 202.069333 36.507152 276.526546 100.879515 10.426182 9.014303 11.481212 25.305212 2.141091 35.529697a22.434909 22.434909 0 0 1-31.480243 2.063515c-66.203152-57.483636-155.058424-90.065455-247.187394-90.065454-196.763152 0-356.848485 144.787394-356.848485 322.761697s160.085333 322.761697 356.848485 322.761697c29.804606 0 59.438545-3.335758 88.079515-9.914182l10.022788-2.296243 8.393697 6.159516c1.024 0.744727 93.199515 66.792727 209.237334 67.335757-8.688485-9.448727-17.408-20.169697-24.808728-31.728485-15.84097-24.715636-34.691879-59.469576-34.691878-84.712727 0-19.285333 2.187636-43.830303 19.192242-62.479515 47.460848-52.068848 75.651879-116.611879 80.616727-183.730424 0.899879-12.117333 10.643394-21.410909 22.326303-21.410909h0.589576c13.746424 0 24.513939 12.148364 23.412364 26.267151-6.004364 77.777455-38.570667 152.296727-93.168485 212.200727-4.514909 4.933818-6.423273 13.653333-6.423273 29.137455 0 6.376727 7.168 27.073939 26.872242 57.856 20.604121 32.147394 55.699394 57.88703 56.040728 58.150788l8.626424 6.283636c13.870545 10.100364 9.014303 32.597333-7.664485 35.560727l-10.379636 1.846303c-20.48 3.692606-40.510061 5.275152-59.888485 5.275152z" fill="#14145B" p-id="6044"></path><path d="M387.878788 512a48.407273 46.545455 90 1 0 93.090909 0 48.407273 46.545455 90 1 0-93.090909 0Z" fill="#14145B" p-id="6045"></path><path d="M620.606061 512a48.407273 46.545455 90 1 0 93.090909 0 48.407273 46.545455 90 1 0-93.090909 0Z" fill="#14145B" p-id="6046"></path><path d="M666.887758 620.606061c9.479758 0 16.958061 8.331636 15.623757 17.640727C673.869576 698.445576 621.661091 744.727273 558.545455 744.727273s-115.324121-46.281697-123.966061-106.480485c-1.334303-9.309091 6.144-17.640727 15.623758-17.640727h216.684606z" fill="#FFFFFF" p-id="6047"></path><path d="M558.545455 760.242424c-69.616485 0-129.520485-51.494788-139.326061-119.792485a30.72 30.72 0 0 1 7.261091-24.529454A31.418182 31.418182 0 0 1 450.203152 605.090909h216.684606c9.107394 0 17.764848 3.956364 23.722666 10.829576 5.864727 6.780121 8.517818 15.716848 7.261091 24.513939C688.065939 708.747636 628.161939 760.242424 558.545455 760.242424z m-108.342303-124.121212c7.354182 53.030788 54.054788 93.090909 108.342303 93.090909s100.988121-40.060121 108.60606-93.184l-0.263757 0.093091H450.203152z" fill="#14145B" p-id="6048"></path><path d="M1024 201.69697a15.515152 15.515152 0 0 1-15.515152 15.515151h-62.060606a15.515152 15.515152 0 0 1 0-31.030303h62.060606a15.515152 15.515152 0 0 1 15.515152 15.515152z" fill="#FFAD44" p-id="6049"></path><path d="M992.969697 232.727273a15.515152 15.515152 0 0 1-31.030303 0V170.666667a15.515152 15.515152 0 0 1 31.030303 0v62.060606z" fill="#FFAD44" p-id="6050"></path><path d="M93.090909 325.818182a15.515152 15.515152 0 0 1-15.515151 15.515151H15.515152a15.515152 15.515152 0 0 1 0-31.030303h62.060606a15.515152 15.515152 0 0 1 15.515151 15.515152z" fill="#FFDA44" p-id="6051"></path><path d="M62.060606 356.848485a15.515152 15.515152 0 0 1-31.030303 0v-62.060606a15.515152 15.515152 0 0 1 31.030303 0v62.060606z" fill="#FFDA44" p-id="6052"></path><path d="M155.151515 186.181818c-51.324121 0-93.090909-41.766788-93.090909-93.090909s41.766788-93.090909 93.090909-93.090909 93.090909 41.766788 93.090909 93.090909-41.766788 93.090909-93.090909 93.090909z m0-143.220363c-27.632485 0-50.129455 22.49697-50.129454 50.129454S127.51903 143.220364 155.151515 143.220364 205.28097 120.723394 205.28097 93.090909 182.784 42.961455 155.151515 42.961455z" fill="#549BE2" p-id="6053"></path><path d="M201.69697 977.454545m-46.545455 0a46.545455 46.545455 0 1 0 93.090909 0 46.545455 46.545455 0 1 0-93.090909 0Z" fill="#F44336" p-id="6054"></path></svg>