<?xml version="1.0" standalone="no"?><!DOCTYPE svg PUBLIC "-//W3C//DTD SVG 1.1//EN" "http://www.w3.org/Graphics/SVG/1.1/DTD/svg11.dtd"><svg t="1638550953578" class="icon" viewBox="0 0 1024 1024" version="1.1" xmlns="http://www.w3.org/2000/svg" p-id="9917" xmlns:xlink="http://www.w3.org/1999/xlink" width="200" height="200"><defs><style type="text/css"></style></defs><path d="M730.8766868 141.33985624H302.98886327C235.80203242 141.33985624 180.65229539 196.48959253 180.65229539 263.67642412V828.93314311c0 8.98570071 3.03267405 18.38324568 5.95302661 27.36894638 9.39754499 21.41591974 33.84613808 33.84613808 55.16845681 33.84613805 9.39754499 0 18.38324568-3.03267405 27.36894638-5.95302664l229.39744465-113.03262388c12.43021905-5.95302663 24.3362723-5.95302663 36.76649062 0l229.32256413 112.92030312c8.96698019 3.03267405 18.36452517 5.95302663 27.35022587 5.95302587a61.1776442 61.1776442 0 0 0 61.21508369-61.21508367V263.6577036C853.19453415 196.50831303 798.04479785 141.33985624 730.8766868 141.33985624z m-134.76678621 240.18028503h-158.78481521c-9.8281098 0-19.52517831-5.03573627-24.54219481-13.90911547-4.08100567-7.20728075-4.08100567-15.87473741-1.04833161-23.49386248 4.90469502-12.22429653 14.50816252-19.65621957 29.03504479-19.65622029h158.7848152c14.32095975 0 24.76683711 10.55819811 24.76683711 28.52959949 0 14.50816252-10.4458766 28.51087901-28.21135547 28.51087826z" fill="#FFC600" p-id="9918"></path></svg>