<?xml version="1.0" standalone="no"?><!DOCTYPE svg PUBLIC "-//W3C//DTD SVG 1.1//EN" "http://www.w3.org/Graphics/SVG/1.1/DTD/svg11.dtd"><svg t="1638597860270" class="icon" viewBox="0 0 1024 1024" version="1.1" xmlns="http://www.w3.org/2000/svg" p-id="2166" xmlns:xlink="http://www.w3.org/1999/xlink" width="200" height="200"><defs><style type="text/css"></style></defs><path d="M733.9 651.5l181 181c22.8 22.8 22.8 59.7 0 82.4-22.8 22.8-59.7 22.8-82.4 0l-181-181 82.4-82.4z" fill="#8ADCFF" p-id="2167"></path><path d="M563.92 619.78l55.861-55.86 50.416 50.416-55.86 55.861z" fill="#978CDB" p-id="2168"></path><path d="M601.085 683.573l82.448-82.448 50.416 50.416-82.448 82.448zM905.7 823.3l9.2 9.2c22.8 22.8 22.8 59.7 0 82.4-22.8 22.8-59.7 22.8-82.4 0l-9.2-9.2 82.4-82.4z" fill="#00A4FF" p-id="2169"></path><path d="M393.1 393.1m-301.1 0a301.1 301.1 0 1 0 602.2 0 301.1 301.1 0 1 0-602.2 0Z" fill="#FFA300" p-id="2170"></path><path d="M393.1 393.1m-211.5 0a211.5 211.5 0 1 0 423 0 211.5 211.5 0 1 0-423 0Z" fill="#FDF17F" p-id="2171"></path><path d="M614.4 680.2c-2.7 0-5.2-1.1-7.1-2.9l-38.1-38.1c-3.9-3.9-3.9-10.2 0-14.1 3.9-3.9 10.2-3.9 14.1 0l31 31 41.7-41.7-31-31c-3.9-3.9-3.9-10.2 0-14.1 3.9-3.9 10.2-3.9 14.1 0l38.1 38.1c1.9 1.9 2.9 4.4 2.9 7.1s-1.1 5.2-2.9 7.1l-55.9 55.9c-1.7 1.7-4.3 2.7-6.9 2.7z" fill="#4D4DCE" p-id="2172"></path><path d="M873.7 942c-18.2 0-35.4-7.1-48.3-20l-181-181c-3.9-3.9-3.9-10.2 0-14.1l82.4-82.4c3.9-3.9 10.2-3.9 14.1 0l181 181c12.9 12.9 20 30 20 48.3 0 18.2-7.1 35.4-20 48.3-12.8 12.8-29.9 19.9-48.2 19.9z m-208-208.1l173.9 173.9c9.1 9.1 21.2 14.1 34.1 14.1 12.9 0 25-5 34.1-14.1 9.1-9.1 14.1-21.2 14.1-34.1s-5-25-14.1-34.1L733.9 665.7l-68.2 68.2z" fill="#00A4FF" p-id="2173"></path><path d="M651.5 743.9c-2.6 0-5.1-1-7.1-2.9L594 690.6c-3.9-3.9-3.9-10.2 0-14.1l82.4-82.4c3.9-3.9 10.2-3.9 14.1 0l50.4 50.4c3.9 3.9 3.9 10.2 0 14.1L658.6 741c-2 2-4.5 2.9-7.1 2.9z m-36.3-60.4l36.3 36.3 68.3-68.3-36.3-36.3-68.3 68.3zM873.7 942c-17.5 0-35-6.7-48.3-20l-9.2-9.2c-3.9-3.9-3.9-10.2 0-14.1l82.4-82.4c3.9-3.9 10.2-3.9 14.1 0l9.2 9.2c26.6 26.6 26.6 69.9 0 96.6-13.2 13.2-30.7 19.9-48.2 19.9z m-36.3-36.3l2.1 2.1c18.8 18.8 49.5 18.8 68.3 0 18.8-18.8 18.8-49.5 0-68.3l-2.1-2.1-68.3 68.3z" fill="#007AFF" p-id="2174"></path><path d="M393.1 704.2c-83.1 0-161.2-32.4-220-91.1-58.7-58.8-91.1-136.9-91.1-220s32.4-161.2 91.1-220C231.9 114.4 310 82 393.1 82s161.2 32.4 220 91.1c58.8 58.8 91.1 136.9 91.1 220s-32.4 161.2-91.1 220c-58.8 58.7-136.9 91.1-220 91.1z m0-602.2c-77.8 0-150.9 30.3-205.8 85.3-55 55-85.3 128.1-85.3 205.8s30.3 150.9 85.3 205.8 128.1 85.3 205.8 85.3c77.8 0 150.9-30.3 205.8-85.3s85.3-128.1 85.3-205.8c0-77.8-30.3-150.9-85.3-205.8S470.9 102 393.1 102z" fill="#FF7900" p-id="2175"></path><path d="M393.1 614.6c-59.2 0-114.8-23-156.6-64.9s-64.9-97.4-64.9-156.6c0-59.2 23-114.8 64.9-156.6s97.4-64.9 156.6-64.9c59.2 0 114.8 23 156.6 64.9s64.9 97.4 64.9 156.6c0 59.2-23 114.8-64.9 156.6s-97.4 64.9-156.6 64.9z m0-423c-111.1 0-201.5 90.4-201.5 201.5S282 594.6 393.1 594.6s201.5-90.4 201.5-201.5-90.4-201.5-201.5-201.5z" fill="#FF7900" p-id="2176"></path></svg>