<?xml version="1.0" standalone="no"?><!DOCTYPE svg PUBLIC "-//W3C//DTD SVG 1.1//EN" "http://www.w3.org/Graphics/SVG/1.1/DTD/svg11.dtd"><svg t="1626627373820" class="icon" viewBox="0 0 1024 1024" version="1.1" xmlns="http://www.w3.org/2000/svg" p-id="5311" width="20" height="20" xmlns:xlink="http://www.w3.org/1999/xlink"><defs><style type="text/css"></style></defs><path d="M948.203198 230.960209c-8.664334-8.66331-20.176528-13.433964-32.417317-13.433964s-23.752983 4.770653-32.41834 13.433964L396.649344 717.680453 140.659065 461.690174c-8.66331-8.66331-20.176528-13.433964-32.41834-13.433964s-23.754007 4.770653-32.417317 13.433964c-8.66331 8.66331-13.433964 20.175505-13.433964 32.417317 0 12.239765 4.770653 23.75196 13.433964 32.417317l288.409642 288.408619c8.66331 8.662287 20.175505 13.433964 32.416294 13.433964 12.239765 0 23.752983-4.770653 32.41834-13.433964l519.136537-519.137561C966.078311 277.91973 966.078311 248.835322 948.203198 230.960209z" p-id="5312" fill="#888888"></path></svg>