<svg xmlns="http://www.w3.org/2000/svg" viewBox="0 0 500 500"><defs><style>.cls-1{fill:#fff;}.cls-2{fill:#ead050;}.cls-3{fill:#d6bd27;opacity:0.57;}.cls-4{fill:#d69d2d;}.cls-5,.cls-6,.cls-8{fill:none;stroke-miterlimit:10;}.cls-5,.cls-8{stroke:#604d42;}.cls-5{stroke-width:10px;}.cls-6{stroke:#756044;stroke-width:12px;}.cls-7{fill:#73d36e;}.cls-8{stroke-width:8px;}</style></defs><title>画板 1</title><g id="图层_4" data-name="图层 4"><path class="cls-1" d="M254.48,63C166.83,63,93.35,127.59,73.61,214.49a36.7,36.7,0,0,0-5.26-.38c-22.47,0-40.65,21.13-40.65,47.25s18.18,47.25,40.65,47.25a36.7,36.7,0,0,0,5.26-.37c19.74,86.9,93.22,151.48,180.87,151.48s161-64.46,180.81-151.29c20.76-2.12,37-22.38,37-47.07s-16.25-44.88-37-47.06C415.5,127.46,342.07,63,254.48,63Z"/></g><g id="图层_3" data-name="图层 3"><g id="图层_1" data-name="图层 1"><path class="cls-2" d="M254.48,58.11c-87.65,0-161.13,64.58-180.87,151.47a36.7,36.7,0,0,0-5.26-.37c-22.47,0-40.65,21.13-40.65,47.25s18.18,47.25,40.65,47.25a36.7,36.7,0,0,0,5.26-.37c19.74,86.89,93.22,151.47,180.87,151.47s161-64.45,180.81-151.29c20.76-2.12,37-22.37,37-47.06s-16.25-44.88-37-47.06C415.5,122.56,342.07,58.11,254.48,58.11Z"/><path class="cls-3" d="M472.3,256.3c0,24.69-16.3,44.89-37,47.07-19.84,86.83-93.22,151.29-180.81,151.29S93.35,390.08,73.61,303.18a36.71,36.71,0,0,1-5.26.44c-22.47,0-40.65-21.13-40.65-47.25,0,9,18.18,16.39,40.65,16.39,1.77,0,3.54-.06,5.26-.12,19.74,30.1,93.22,52.48,180.87,52.48s161-22.31,180.81-52.36c20.76-.93,37-7.92,37-16.46Z"/><path class="cls-1" d="M147.49,287.94s57.91,4.59,102.49,4.59,102.53-4.59,102.53-4.59S355,382.15,250,382.15,147.49,287.94,147.49,287.94Z"/><path class="cls-4" d="M154.88,317.49s53.74,2.94,95.1,2.94,95.14-2.94,95.14-2.94,2.33,60.38-95.14,60.38S154.88,317.49,154.88,317.49Z"/><path class="cls-5" d="M147.91,287.94s57.92,4.59,102.49,4.59,102.54-4.59,102.54-4.59,2.51,94.21-102.54,94.21S147.91,287.94,147.91,287.94Z"/></g><path class="cls-6" d="M125.7,207.5s47.55-75.24,99.35,0"/><path class="cls-6" d="M374.3,207.5s-47.55-75.24-99.35,0"/></g><g id="图层_2" data-name="图层 2"><path class="cls-5" d="M254.48,55.89c-87.65,0-161.13,64.58-180.87,151.48a36.7,36.7,0,0,0-5.26-.38c-22.47,0-40.65,21.14-40.65,47.26S45.88,301.5,68.35,301.5a36.7,36.7,0,0,0,5.26-.38C93.35,388,166.83,452.6,254.48,452.6s161-64.46,180.81-151.29c20.76-2.12,37-22.38,37-47.07s-16.25-44.88-37-47.06C415.5,120.35,342.07,55.89,254.48,55.89Z"/><path class="cls-7" d="M329.62,69.23s27.63-14,62,9,49.64,95,65.05,120.43a175.12,175.12,0,0,1-59-34.72A343.27,343.27,0,0,1,329.62,69.23Z"/><path class="cls-8" d="M329.62,70.23s27.63-14,62,9,49.64,95,65.05,120.43a175.12,175.12,0,0,1-59-34.72A343.27,343.27,0,0,1,329.62,70.23Z"/></g></svg>