<?xml version="1.0" encoding="utf-8"?>
<svg version="1.1" id="nm_1" xmlns="http://www.w3.org/2000/svg" xmlns:xlink="http://www.w3.org/1999/xlink" x="0px" y="0px"
	 viewBox="0 0 200 200" style="enable-background:new 0 0 200 200;" xml:space="preserve">
<style type="text/css">
	.st0{fill:#EAD050;}
	.st1{fill:none;stroke:#604D42;stroke-width:4;stroke-miterlimit:10;}
</style>
<path class="st0" d="M152.9,136.8c-0.3,12.3-5.7,22.4-13.4,31.5c-6.7,7.9-14.3,14.3-24.6,16.8c-11.1,2.8-21.7,1.2-31.9-3.5
	c-8.6-4-16.1-9.5-22.8-16.1c-12.3-12.3-24.7-24.7-37-37c-2-2-3.5-4-2.5-7.1c1.8-5.8,7.6-7.4,12-3.2c6,5.8,11.8,11.8,17.8,17.7
	c0.7,0.7,1.3,1.7,2.1,1.8c1.6,0.2,3.7,0.3,4.7-0.5c0.8-0.7,0.7-3,0.5-4.5c-0.1-0.8-1.2-1.6-1.9-2.3C45.4,120,35.2,109.8,25,99.5
	c-4-4.1-2.6-10.3,2.5-11.8c3.4-0.9,6.1,0.4,8.5,2.9c9.3,9.4,18.7,18.8,28.1,28.2c0.7,0.7,1.3,1.4,2,1.9c1.6,1.2,3.3,1.1,4.8-0.2
	c1.5-1.4,1.6-3.1,0.5-4.8c-0.6-1-1.5-1.9-2.4-2.7c-12.4-12.4-24.8-24.8-37.2-37.2c-4.5-4.5-3.1-10.9,2.7-12.5c2.9-0.8,5.1,0.5,7,2.4
	c6.7,6.7,13.4,13.3,20.1,20c6,6,11.9,12,17.9,18c0.8,0.8,1.6,1.9,2.5,2c1.4,0.2,3.1,0.1,4.2-0.6c1.5-1,1.8-2.8,0.6-4.4
	c-0.6-0.9-1.4-1.7-2.2-2.5C75.1,88.5,65.4,78.8,55.7,69c-4.1-4.1-2.9-10.2,2.3-11.8c3.4-1,6.1,0.2,8.5,2.7
	c9.7,9.8,19.4,19.4,29.1,29.2c7.1,7.1,14.1,14.2,21.3,21.3c1.1,1.1,2.8,2.1,4.2,2.1c2.6,0,3.8-3.1,2.6-5.7
	c-3.2-6.8-6.5-13.5-9.6-20.4c-0.9-2-1.5-4.4-1.4-6.7c0.1-4.7,4.9-7.6,9.1-5.6c1.6,0.8,3.3,2,4.2,3.5c7.9,13.9,15.7,27.7,23.2,41.8
	C152.1,124.6,153,130.6,152.9,136.8L152.9,136.8z"/>
<path class="st0" d="M139,182.8c3.7-4.2,7.5-8.1,10.8-12.4c7.9-10.3,12.8-21.9,12.4-35.2c-0.3-9.8-3.3-18.9-8.1-27.4
	c-5.9-10.5-11.9-21-18-31.4c-1.5-2.6-2.3-5-0.2-7.6c2.1-2.7,4.8-4,8.2-3.5c4,0.6,6.4,3.1,8.3,6.4c3.4,5.9,6.7,11.8,10.1,17.6
	c3.3,5.9,6.6,11.9,10.1,17.6c11.1,18.4,8.4,38.6-3.9,55.2c-6.7,9.1-14.8,16.7-25.9,20c-1,0.3-2,0.6-2.9,0.8
	C139.5,182.9,139.3,182.8,139,182.8L139,182.8z M107.7,69.2c-3.7,3.9-5,8.6-4.2,14.3c-0.8-0.6-1.1-0.8-1.4-1.1
	c-8.3-8.3-16.6-16.7-25-24.9c-1.9-1.9-1.8-3.4-0.4-5.3c2.7-3.9,9-5.2,12.6-1.9C95.5,56.3,101.4,62.7,107.7,69.2z M117.2,34.7
	c0.8-6.5,1.5-12.3,2.3-18.5c3.2,1.4,6.2,2.7,9.6,4.1C125.1,25.2,121.4,29.7,117.2,34.7z M83.9,33.6c-3.5-4.3-7.1-8.5-11-13.2
	c3.2-1.5,6.1-2.8,9.5-4.4c0.7,6.1,1.4,11.7,2.1,17.3C84.4,33.5,84.2,33.6,83.9,33.6z M105.8,13.1c-1.7,5.4-3.2,10.5-4.8,15.5
	c-0.2,0-0.3,0-0.5,0c-1.6-5.1-3.2-10.2-4.8-15.6h10.1V13.1z"/>
<g>
	<path class="st1" d="M152,132.5c-0.3,12.3-5.7,22.4-13.4,31.5c-6.7,7.9-14.3,14.3-24.6,16.8c-11.1,2.8-21.7,1.2-31.9-3.5
		c-8.6-4-16.1-9.5-22.8-16.1c-12.3-12.3-24.7-24.7-37-37c-2-2-3.5-4-2.5-7.1c1.8-5.8,7.6-7.4,12-3.2c6,5.8,11.8,11.8,17.8,17.7
		c0.7,0.7,1.3,1.7,2.1,1.8c1.6,0.2,3.7,0.3,4.7-0.5c0.8-0.7,0.7-3,0.5-4.5c-0.1-0.8-1.2-1.6-1.9-2.3c-10.2-10.3-20.5-20.5-30.6-30.8
		c-4-4.1-2.6-10.3,2.5-11.8c3.4-0.9,6.1,0.4,8.5,2.9c9.3,9.4,18.7,18.8,28.1,28.2c0.7,0.7,1.3,1.4,2,1.9c1.6,1.2,3.3,1.1,4.8-0.2
		c1.5-1.4,1.6-3.1,0.5-4.8c-0.6-1-1.5-1.9-2.4-2.7C55.7,96.3,43.3,84,30.9,71.5c-4.4-4.5-3-10.9,2.8-12.5c2.9-0.8,5.1,0.5,7,2.4
		c6.7,6.7,13.4,13.3,20.1,20c6,6,11.9,12,17.9,18c0.8,0.8,1.6,1.9,2.5,2c1.4,0.2,3.1,0.1,4.2-0.6c1.5-1,1.8-2.8,0.6-4.4
		c-0.6-0.9-1.4-1.7-2.2-2.5c-9.7-9.7-19.4-19.4-29.1-29.2c-4.1-4.1-2.9-10.2,2.3-11.8c3.4-1,6.1,0.2,8.5,2.7
		C75.3,65.4,85,75,94.7,84.7c7.1,7.1,14.1,14.2,21.3,21.3c1.1,1.1,2.8,2.1,4.2,2.1c2.6,0,3.8-3.1,2.6-5.7
		c-3.2-6.8-6.5-13.5-9.6-20.4c-0.9-2-1.5-4.4-1.4-6.7c0.1-4.7,4.9-7.6,9.1-5.6c1.6,0.8,3.3,2,4.2,3.5c7.9,13.9,15.7,27.7,23.2,41.8
		C151.2,120.3,152.1,126.3,152,132.5L152,132.5z"/>
	<path class="st1" d="M138.1,178.5c3.7-4.2,7.5-8.1,10.8-12.4c7.9-10.3,12.8-21.9,12.4-35.2c-0.3-9.8-3.3-18.9-8.1-27.4
		c-5.9-10.5-11.9-21-18-31.4c-1.5-2.6-2.3-5-0.2-7.6c2.1-2.7,4.8-4,8.2-3.5c4,0.6,6.4,3.1,8.3,6.4c3.4,5.9,6.7,11.8,10.1,17.6
		c3.3,5.9,6.6,11.9,10.1,17.6c11.1,18.4,8.4,38.6-3.9,55.2c-6.7,9.1-14.8,16.7-25.9,20c-1,0.3-2,0.6-2.9,0.8
		C138.6,178.6,138.4,178.5,138.1,178.5L138.1,178.5z M106.8,64.9c-3.7,3.9-5,8.6-4.2,14.3c-0.8-0.6-1.1-0.8-1.4-1.1
		c-8.3-8.3-16.6-16.7-25-24.9c-1.9-1.9-1.8-3.4-0.4-5.3c2.7-3.9,9-5.2,12.6-1.9C94.6,52,100.5,58.4,106.8,64.9z M116.3,30.5
		c0.8-6.5,1.5-12.3,2.3-18.5c3.2,1.4,6.2,2.7,9.6,4.1C124.2,20.9,120.5,25.4,116.3,30.5z M83,29.3c-3.5-4.3-7.1-8.5-11-13.2
		c3.2-1.5,6.1-2.8,9.5-4.4c0.7,6.1,1.4,11.7,2.1,17.3C83.5,29.2,83.3,29.3,83,29.3z M105,8.9c-1.7,5.4-3.2,10.5-4.8,15.5
		c-0.2,0-0.3,0-0.5,0c-1.6-5.1-3.2-10.2-4.8-15.6H105V8.9z"/>
</g>
</svg>
