<svg id="nmFunLike" data-name="nmFunLike 1" xmlns="http://www.w3.org/2000/svg" viewBox="0 0 1133.86 1133.86"><defs><style>.cls-1{fill:#ead050;}</style></defs><title>nmFun_like_background</title><polygon class="cls-1" points="236.97 583.94 187.36 583.94 137.75 583.94 38.54 583.94 38.54 566.93 38.54 549.92 137.75 549.92 187.36 549.92 236.97 549.92 236.97 566.93 236.97 583.94"/><path class="cls-1" d="M32.53,552.41c1.54-1.54,53.27-2.49,55.62-2.49,1.15,0,27.06.23,28.06.65s26.78,1.06,27.56,1.84c1.54,1.54,2.49,12.17,2.49,14.52s-.95,13-2.49,14.52c-.78.78-26.52,1.41-27.56,1.84s-26.91.65-28.06.65c-2.35,0-54.08-1-55.62-2.49S30,569.28,30,566.93,31,554,32.53,552.41Z"/><path class="cls-1" d="M55.55,566.93a17,17,0,1,1-5-12A17,17,0,0,1,55.55,566.93Z"/><circle class="cls-1" cx="71.61" cy="566.93" r="17.01"/><circle class="cls-1" cx="104.68" cy="566.93" r="17.01"/><circle class="cls-1" cx="137.76" cy="566.93" r="17.01"/><circle class="cls-1" cx="170.83" cy="566.93" r="17.01"/><circle class="cls-1" cx="203.9" cy="566.93" r="17.01"/><circle class="cls-1" cx="236.97" cy="566.93" r="17.01"/><polygon class="cls-1" points="1095.32 583.94 996.1 583.94 896.89 583.94 896.89 566.93 896.89 549.92 996.1 549.92 1095.32 549.92 1095.32 566.93 1095.32 583.94"/><path class="cls-1" d="M890.88,552.41c1.54-1.54,53.27-2.49,55.62-2.49s54.08,1,55.62,2.49,2.49,12.17,2.49,14.52-1,13-2.49,14.52-53.27,2.49-55.62,2.49-54.08-1-55.62-2.49-2.49-12.17-2.49-14.52S889.34,554,890.88,552.41Z"/><path class="cls-1" d="M913.9,566.93a17,17,0,1,1-5-12A17,17,0,0,1,913.9,566.93Z"/><circle class="cls-1" cx="929.96" cy="566.93" r="17.01"/><circle class="cls-1" cx="963.03" cy="566.93" r="17.01"/><circle class="cls-1" cx="996.1" cy="566.93" r="17.01"/><circle class="cls-1" cx="1029.17" cy="566.93" r="17.01"/><circle class="cls-1" cx="1062.24" cy="566.93" r="17.01"/><circle class="cls-1" cx="1095.32" cy="566.93" r="17.01"/><polygon class="cls-1" points="583.94 896.89 583.94 996.1 583.94 1095.32 566.93 1095.32 549.92 1095.32 549.92 996.1 549.92 896.89 566.93 896.89 583.94 896.89"/><path class="cls-1" d="M552.41,990.09c1.54-1.54,12.17-2.49,14.52-2.49s13,.95,14.52,2.49,2.49,53.27,2.49,55.62-1,54.08-2.49,55.62-12.17,2.49-14.52,2.49-13-1-14.52-2.49-2.49-53.27-2.49-55.62S550.87,991.63,552.41,990.09Z"/><path class="cls-1" d="M566.93,1078.31a17,17,0,1,1-12,5A17,17,0,0,1,566.93,1078.31Z"/><circle class="cls-1" cx="566.93" cy="1062.24" r="17.01"/><circle class="cls-1" cx="566.93" cy="1029.17" r="17.01"/><circle class="cls-1" cx="566.93" cy="996.1" r="17.01"/><circle class="cls-1" cx="566.93" cy="963.03" r="17.01"/><circle class="cls-1" cx="566.93" cy="929.96" r="17.01"/><circle class="cls-1" cx="566.93" cy="896.89" r="17.01"/><polygon class="cls-1" points="583.94 38.54 583.94 137.75 583.94 236.97 566.93 236.97 549.92 236.97 549.92 137.75 549.92 38.54 566.93 38.54 583.94 38.54"/><path class="cls-1" d="M552.41,131.74c1.54-1.54,12.17-2.49,14.52-2.49s13,.95,14.52,2.49,2.49,53.27,2.49,55.62-1,54.08-2.49,55.62-12.17,2.49-14.52,2.49-13-.95-14.52-2.49-2.49-53.27-2.49-55.62S550.87,133.28,552.41,131.74Z"/><path class="cls-1" d="M566.93,220a17,17,0,1,1-12,5A17,17,0,0,1,566.93,220Z"/><circle class="cls-1" cx="566.93" cy="203.9" r="17.01"/><circle class="cls-1" cx="566.93" cy="170.83" r="17.01"/><circle class="cls-1" cx="566.93" cy="137.76" r="17.01"/><circle class="cls-1" cx="566.93" cy="104.68" r="17.01"/><circle class="cls-1" cx="566.93" cy="71.61" r="17.01"/><circle class="cls-1" cx="566.93" cy="38.54" r="17.01"/><rect class="cls-1" x="335.33" y="96.04" width="34.02" height="198.43" transform="matrix(0.87, -0.5, 0.5, 0.87, -50.42, 202.33)"/><path class="cls-1" d="M349.23,206.87c-4.07,2.35-58.88-85-61.22-89s13.77-17.78,17.84-20.12,58.87,85,61.22,89S353.3,204.52,349.23,206.87Z"/><circle class="cls-1" cx="302.74" cy="109.33" r="17.01"/><circle class="cls-1" cx="327.54" cy="152.29" r="17.01"/><circle class="cls-1" cx="352.34" cy="195.25" r="17.01"/><circle class="cls-1" cx="377.15" cy="238.21" r="17.01"/><circle class="cls-1" cx="401.95" cy="281.17" r="17.01"/><rect class="cls-1" x="764.51" y="839.39" width="34.02" height="198.43" transform="translate(-364.6 516.51) rotate(-30)"/><path class="cls-1" d="M778.4,950.22c-4.06,2.35-58.87-85-61.22-89S731,843.42,735,841.07s58.88,85,61.23,89S782.47,947.87,778.4,950.22Z"/><circle class="cls-1" cx="731.91" cy="852.68" r="17.01"/><circle class="cls-1" cx="756.71" cy="895.64" r="17.01"/><circle class="cls-1" cx="781.52" cy="938.6" r="17.01"/><circle class="cls-1" cx="806.32" cy="981.56" r="17.01"/><circle class="cls-1" cx="831.12" cy="1024.53" r="17.01"/><rect class="cls-1" x="96.04" y="764.51" width="198.43" height="34.02" transform="matrix(0.87, -0.5, 0.5, 0.87, -364.6, 202.33)"/><path class="cls-1" d="M206.87,784.63c2.35,4.07-85,58.87-89,61.22S100.06,832.08,97.72,828s85-58.87,89-61.22S204.52,780.56,206.87,784.63Z"/><circle class="cls-1" cx="109.33" cy="831.12" r="17.01"/><circle class="cls-1" cx="152.29" cy="806.32" r="17.01"/><circle class="cls-1" cx="195.25" cy="781.52" r="17.01"/><circle class="cls-1" cx="238.21" cy="756.71" r="17.01"/><circle class="cls-1" cx="281.17" cy="731.91" r="17.01"/><rect class="cls-1" x="839.39" y="335.33" width="198.43" height="34.02" transform="matrix(0.87, -0.5, 0.5, 0.87, -50.42, 516.51)"/><path class="cls-1" d="M950.22,355.45c2.35,4.07-85,58.88-89,61.23s-17.77-13.78-20.12-17.84,85-58.88,89-61.23S947.87,351.39,950.22,355.45Z"/><circle class="cls-1" cx="852.68" cy="401.95" r="17.01"/><circle class="cls-1" cx="895.64" cy="377.15" r="17.01"/><circle class="cls-1" cx="938.6" cy="352.34" r="17.01"/><circle class="cls-1" cx="981.56" cy="327.54" r="17.01"/><circle class="cls-1" cx="1024.53" cy="302.74" r="17.01"/><rect class="cls-1" x="678.81" y="176.99" width="198.43" height="34.02" transform="translate(227.43 776.92) rotate(-60.63)"/><path class="cls-1" d="M763.2,185.66c2.3-4.09,56.14-92,60.23-89.71s20.37,15.83,18.06,19.92-56.14,92-60.23,89.71S760.89,189.75,763.2,185.66Z"/><circle class="cls-1" cx="826.67" cy="107.53" r="17.01"/><circle class="cls-1" cx="802.34" cy="150.77" r="17.01"/><circle class="cls-1" cx="778.02" cy="194" r="17.01"/><circle class="cls-1" cx="753.69" cy="237.23" r="17.01"/><circle class="cls-1" cx="729.37" cy="280.46" r="17.01"/><rect class="cls-1" x="257.9" y="925.05" width="198.43" height="34.02" transform="translate(-639.03 791.33) rotate(-60.63)"/><path class="cls-1" d="M342.29,933.72c2.3-4.09,56.14-92,60.23-89.71s20.37,15.83,18.06,19.93-56.14,92-60.23,89.7S340,937.81,342.29,933.72Z"/><circle class="cls-1" cx="405.76" cy="855.6" r="17.01"/><circle class="cls-1" cx="381.44" cy="898.83" r="17.01"/><circle class="cls-1" cx="357.11" cy="942.06" r="17.01"/><circle class="cls-1" cx="332.78" cy="985.29" r="17.01"/><circle class="cls-1" cx="308.46" cy="1028.53" r="17.01"/><rect class="cls-1" x="176.53" y="258.36" width="34.02" height="198.43" transform="translate(-213 350.9) rotate(-60.63)"/><path class="cls-1" d="M185.19,372.4c-4.09-2.31-92-56.14-89.7-60.24s15.83-20.36,19.92-18.06,92,56.14,89.7,60.23S189.29,374.7,185.19,372.4Z"/><circle class="cls-1" cx="107.07" cy="308.92" r="17.01"/><circle class="cls-1" cx="150.3" cy="333.25" r="17.01"/><circle class="cls-1" cx="193.53" cy="357.57" r="17.01"/><circle class="cls-1" cx="236.77" cy="381.9" r="17.01"/><circle class="cls-1" cx="280" cy="406.23" r="17.01"/><rect class="cls-1" x="924.59" y="679.27" width="34.02" height="198.43" transform="translate(-198.6 1217.35) rotate(-60.63)"/><path class="cls-1" d="M933.26,793.31c-4.1-2.31-92-56.14-89.71-60.24s15.83-20.36,19.92-18.06,92,56.14,89.71,60.23S937.35,795.61,933.26,793.31Z"/><circle class="cls-1" cx="855.13" cy="729.83" r="17.01"/><circle class="cls-1" cx="898.36" cy="754.16" r="17.01"/><circle class="cls-1" cx="941.6" cy="778.48" r="17.01"/><circle class="cls-1" cx="984.83" cy="802.81" r="17.01"/><circle class="cls-1" cx="1028.06" cy="827.14" r="17.01"/></svg>