<?xml version="1.0" encoding="utf-8"?>
<svg version="1.1" id="like_1" xmlns="http://www.w3.org/2000/svg" xmlns:xlink="http://www.w3.org/1999/xlink" x="0px" y="0px"
	 viewBox="0 0 200 200" style="enable-background:new 0 0 200 200;" xml:space="preserve">
<style type="text/css">
	.st0{fill:#EAD050;}
	.st1{fill:#F07FFD;}
	.st2{fill:#2C65AF;}
	.st3{fill:#EF8218;}
	.st4{fill:#7CCBE2;}
	.st5{fill:#E62A52;}
	.st6{fill:#604D42;}
	.st7{fill:#FFFFFF;}
</style>
<path class="st0" d="M120.5,27.4c3.2,1.6,5.9,4.4,8.4,8.1c3.9,6.1,6.3,14.8,6.8,24.7c0.4,8-0.5,16.2-2.5,23.4h30.1
	c7.1,0,13.2,1.8,17.7,5.1c4.7,3.4,7.3,8.4,7.5,13.8v0.1c0,4.2-1.6,9.2-4,12.5c2.7,3,4,7.1,4,12c0,5.8-4,11.3-8.1,14.2
	c1,2.3,1.4,4.9,1.4,6.7c0,6.6-3.9,11.8-10.8,14.6c0.6,1.5,0.9,3.2,0.9,5.2c0,6.2-2.5,11.3-7.3,14.6c-4.7,3.3-11.4,4.9-19.9,4.9h-48
	c-5.3,0-11.3-1.1-15.7-2.9c-1.8-0.8-3.4-1.5-4.6-2.1c-0.3-0.1-0.6-0.3-0.9-0.4c-0.3,0.1-0.4,0.4-0.6,0.5c-0.4,0.3-0.8,0.6-1.1,0.9
	c-2.8,2-5.8,3.9-9.5,4h-13c-5.6,0-10.1-1.8-13.3-5.2c-2.9-3.2-4.7-7.7-5.1-13.4L27,105.2V105c0-5.9,1.8-11.2,5.1-15.2
	c3.4-4,8.2-6.2,13.5-6.2h23c3.2,0,8.4-1,15.1-5.9c4.7-3.5,7.6-7.1,8.2-8.2C94,64.2,96,58.5,96,45c0-1.6,0-6.7,2.1-11.1
	c1.8-3.9,5.8-8.5,14.2-8.5C115.2,25.4,117.9,26.2,120.5,27.4L120.5,27.4z"/>
<path class="st1" d="M140.2,18.4c0,1.3,0.2,2.4,0.4,2.4c0.2,0,0.4-1.1,0.5-2.4c0,0,0,0,0,0c0-1.3-0.2-2.4-0.4-2.4
	C140.4,16,140.2,17.1,140.2,18.4C140.2,18.4,140.2,18.4,140.2,18.4z M142.3,18.1c0.7,1.1,1.4,2,1.6,1.8c0.2-0.1-0.1-1.1-0.8-2.3
	c-0.6-1.1-1.4-2.1-1.7-2.2c-0.3-0.1-0.1,0.8,0.5,1.9C142,17.6,142.2,17.8,142.3,18.1z"/>
<path class="st1" d="M144,16.8c1.1,0.7,2.2,1,2.3,0.8c0.1-0.2-0.7-0.9-1.8-1.6c-1.2-0.7-2.2-1.1-2.4-0.8
	C142,15.4,142.8,16.1,144,16.8C144,16.8,144,16.8,144,16.8z M142.5,14.3c0,0.2,1.1,0.4,2.4,0.4c1.3,0,2.4-0.2,2.4-0.4l0,0
	c0-0.2-1.1-0.4-2.4-0.4C143.5,13.9,142.5,14.1,142.5,14.3z"/>
<path class="st1" d="M142.3,13.4c0,0.3,0.9,0,2-0.6c1.1-0.6,2.1-1.4,2.1-1.7c0,0,0-0.1,0-0.1c-0.1-0.2-1.1,0.1-2.3,0.8
	C143,12.5,142.1,13.2,142.3,13.4C142.3,13.4,142.3,13.4,142.3,13.4L142.3,13.4z M141.7,12.8c0.2,0.1,0.9-0.7,1.6-1.8
	c0.7-1.1,1-2.2,0.8-2.3c0,0,0,0,0,0c-0.2-0.1-0.9,0.7-1.6,1.8C141.8,11.6,141.4,12.6,141.7,12.8C141.7,12.8,141.7,12.8,141.7,12.8z
	 M140.3,10.1c0,1.3,0.2,2.4,0.4,2.4s0.4-1.1,0.5-2.4c0,0,0,0,0,0c0-1.3-0.2-2.4-0.4-2.4C140.5,7.7,140.3,8.8,140.3,10.1
	C140.3,10.1,140.3,10.1,140.3,10.1z"/>
<path class="st1" d="M138.3,10.9c0.5,1.1,1.4,2.3,1.8,2.6c0.4,0.3,0.3-0.4-0.2-1.5c-0.2-0.5-0.5-1-0.8-1.5c-0.7-1.3-1.5-2.2-1.7-2.1
	C137.1,8.5,137.5,9.6,138.3,10.9z"/>
<path class="st1" d="M136.9,12.5c1.1,0.7,2.2,1,2.3,0.8c0.1-0.2-0.7-0.9-1.8-1.6c0,0,0,0,0,0c-1.1-0.7-2.2-1-2.3-0.8
	C135,11.2,135.8,11.9,136.9,12.5C136.9,12.5,136.9,12.5,136.9,12.5L136.9,12.5z M134.2,14.2c0,0.2,1.1,0.4,2.4,0.4
	c1.3,0,2.4-0.2,2.4-0.4c0-0.2-1.1-0.4-2.4-0.4C135.3,13.7,134.2,13.9,134.2,14.2z"/>
<path class="st1" d="M135,17.5c0.1,0.2,1.1-0.1,2.3-0.8c1.1-0.7,2-1.4,1.8-1.6c0,0,0,0,0,0c-0.1-0.2-1.1,0.1-2.3,0.8
	C135.7,16.5,134.9,17.2,135,17.5C135,17.5,135,17.5,135,17.5L135,17.5z M137.4,19.9c0.2,0.1,0.9-0.7,1.6-1.8c0.7-1.1,1-2.2,0.8-2.3
	c-0.2-0.1-0.9,0.7-1.6,1.8C137.5,18.7,137.2,19.7,137.4,19.9C137.4,19.9,137.4,19.9,137.4,19.9L137.4,19.9z"/>
<path class="st2" d="M55.5,39.1c0,1.6,1.3,2.9,2.9,2.9c1.6,0,2.9-1.3,2.9-2.9s-1.3-2.9-2.9-2.9C56.8,36.2,55.5,37.5,55.5,39.1z"/>
<path class="st3" d="M169.1,26.5c0.4,0,0.8,0.3,0.8,0.8v8.2c0,0.4-0.4,0.8-0.8,0.8s-0.8-0.3-0.8-0.8v-8.2
	C168.3,26.9,168.7,26.5,169.1,26.5z"/>
<path class="st3" d="M164.7,30.6h8.9c0.4,0,0.8,0.3,0.8,0.8s-0.4,0.8-0.8,0.8h-8.9c-0.4,0-0.8-0.3-0.8-0.8
	C163.9,31,164.2,30.6,164.7,30.6z"/>
<path class="st4" d="M32.6,35.9c1.2-0.6,1.7-1.8,1.3-2.6l-8.5-16.4c-0.4-0.8-1.7-1-2.9-0.4c-1.2,0.6-1.7,1.8-1.3,2.6l8.5,16.4
	C30.1,36.3,31.4,36.5,32.6,35.9z"/>
<path class="st4" d="M37.3,21.1c-0.6-1.2-1.8-1.7-2.6-1.3l-16.4,8.5c-0.8,0.4-1,1.7-0.4,2.9s1.8,1.7,2.6,1.3L36.8,24
	C37.7,23.6,37.9,22.3,37.3,21.1z"/>
<path class="st5" d="M66.8,6.9c4.1,0,7.4,3.3,7.4,7.3s-3.3,7.3-7.4,7.3s-7.4-3.3-7.4-7.3S62.7,6.9,66.8,6.9z M66.8,19.5
	c3,0,5.4-2.4,5.4-5.4s-2.4-5.4-5.4-5.4c-3,0-5.4,2.4-5.4,5.4S63.8,19.5,66.8,19.5z"/>
<g>
	<path class="st6" d="M138.4,183.8h-15.9c-1.6,0-2.9-1.3-2.9-2.9c0-1.6,1.3-2.9,2.9-2.9h15.9c7.9,0,14-1.5,18.2-4.4l0,0
		c4-2.7,6.1-6.9,6.1-12.1c0-1.7-0.2-3-0.7-4.1l-1.1-2.7l2.7-1.1c5.8-2.3,8.9-6.5,8.9-11.8c0-1.4-0.3-3.6-1.1-5.5l-1-2.2l1.9-1.4
		c3.4-2.5,6.9-7.1,6.9-11.8c0-4.2-1.1-7.6-3.3-10.1l-1.5-1.8l1.4-1.9c2.1-2.8,3.5-7.2,3.5-10.8v-0.1c-0.1-4.5-2.3-8.6-6.3-11.5
		c-4.1-2.9-9.6-4.5-16-4.5h-34l1-3.7c1.9-6.9,2.8-14.8,2.4-22.5c-0.5-9.4-2.7-17.6-6.4-23.2c-2.2-3.3-4.6-5.7-7.2-7.1
		c-2.5-1.2-4.7-1.7-6.9-1.7c-7,0-10.1,3.7-11.5,6.8l0,0.1c-1.9,3.8-1.9,8.4-1.9,9.9c0,13.8-2.1,19.9-4.4,25.5l-0.1,0.2L88,64.5
		c-0.9,1.5-4.1,5.4-9,9.1l0,0c-7.3,5.4-13.2,6.5-16.8,6.5h-23c-4.5,0-8.5,1.8-11.3,5.2c-2.9,3.4-4.4,8-4.4,13.3v0.1l0.7,7.4
		c0.2,1.6-1,3-2.6,3.2c-1.6,0.2-3-1-3.2-2.6L17.7,99v-0.4c0-6.7,2-12.6,5.7-17.1c3.9-4.7,9.6-7.2,15.8-7.2h23
		c2.7,0,7.3-0.9,13.3-5.4c4.2-3.2,6.8-6.3,7.3-7.2c2.1-5.2,3.9-10.5,3.9-23.1c0-1.8,0-7.3,2.4-12.4c1.3-2.8,3.2-5.1,5.6-6.9
		c3.1-2.2,6.9-3.3,11.3-3.3c3.1,0,6.2,0.8,9.5,2.3l0.1,0c3.5,1.8,6.7,4.9,9.5,9.1c4.2,6.5,6.8,15.8,7.3,26.2
		c0.3,6.9-0.3,14.1-1.7,20.6H157c7.6,0,14.3,1.9,19.4,5.6c5.4,4,8.5,9.7,8.7,16.1v0.2c0,4-1.3,8.7-3.4,12.4
		c2.3,3.3,3.4,7.4,3.4,12.2c0,6.3-3.8,11.8-7.6,15.1c0.8,2.6,0.9,5,0.9,5.7c0,6.9-3.7,12.7-10.2,16.1c0.2,1.1,0.3,2.3,0.3,3.6
		c0,7.1-3,13.2-8.6,17C154.7,181.9,147.5,183.8,138.4,183.8L138.4,183.8z M24.6,145.1c-1.5,0-2.8-1.1-2.9-2.7l-2.3-25.1
		c-0.2-1.6,1-3,2.6-3.2c1.6-0.2,3,1,3.2,2.6l2.3,25.1c0.2,1.6-1,3-2.6,3.2C24.8,145.1,24.7,145.1,24.6,145.1L24.6,145.1z
		 M104.8,183.8H90.3c-5.6,0-11.9-1.2-16.8-3.1l-0.1,0c-1.6-0.7-2.9-1.3-3.9-1.8c-0.1,0.1-0.3,0.2-0.5,0.4c-3.2,2.3-6.7,4.4-11.1,4.6
		H44.9c-6.4,0-11.7-2.1-15.4-6.1c-3.4-3.7-5.4-8.9-5.8-15.2l-0.7-7.8c-0.2-1.6,1-3,2.6-3.2c1.6-0.2,3,1,3.2,2.6l0.7,7.9
		c0.3,4.9,1.8,8.9,4.3,11.6c2.6,2.8,6.3,4.2,11.1,4.2h13c2.7-0.1,5-1.5,7.8-3.5l0.1-0.1c0.1,0,0.2-0.2,0.3-0.3
		c0.2-0.2,0.5-0.4,0.8-0.6c0.2-0.2,0.5-0.5,1-0.7l1.3-0.7l1.3,0.7c0.1,0,0.1,0.1,0.2,0.1c0.2,0.1,0.4,0.2,0.7,0.3l0.1,0.1
		c0.9,0.5,2.4,1.2,4.3,2c4.2,1.7,9.7,2.7,14.6,2.7h14.5c1.6,0,2.9,1.3,2.9,2.9S106.4,183.8,104.8,183.8z"/>
	<path class="st6" d="M69.4,176.7c-1.5,0-2.8-1.2-2.9-2.8l-5.2-96.7c-0.1-1.6,1.2-3,2.8-3.1c1.6-0.1,3,1.2,3.1,2.8l5.2,96.7
		c0.1,1.6-1.2,3-2.8,3.1H69.4z"/>
</g>
<path class="st7" d="M43.9,96.1c-1.5,0-2.8-1.2-2.9-2.8l-0.5-9.7c-0.1-1.6,1.2-3,2.8-3.1c1.6-0.1,3,1.2,3.1,2.8l0.5,9.7
	c0.1,1.6-1.2,3-2.8,3.1C44,96.1,43.9,96.1,43.9,96.1L43.9,96.1z M46.2,137.9c-1.5,0-2.8-1.2-2.9-2.8l-1.6-28.5
	c-0.1-1.6,1.2-3,2.8-3.1c1.6-0.1,3,1.2,3.1,2.8l1.6,28.5c0.1,1.6-1.2,3-2.8,3.1C46.3,137.8,46.2,137.9,46.2,137.9L46.2,137.9z"/>
</svg>
