<?xml version="1.0" standalone="no"?><!DOCTYPE svg PUBLIC "-//W3C//DTD SVG 1.1//EN" "http://www.w3.org/Graphics/SVG/1.1/DTD/svg11.dtd"><svg t="1637595075403" class="icon" viewBox="0 0 1024 1024" version="1.1" xmlns="http://www.w3.org/2000/svg" p-id="4518" xmlns:xlink="http://www.w3.org/1999/xlink" width="200" height="200"><defs><style type="text/css"></style></defs><path d="M512 512m-512 0a512 512 0 1 0 1024 0 512 512 0 1 0-1024 0Z" fill="#F4C550" opacity=".2" p-id="4519"></path><path d="M655.776 265.632a56.512 56.512 0 0 0 10.208 14.048 20.864 20.864 0 0 0 15.04 5.728h119.328v-12.8a52 52 0 0 0-1.6-11.808 44.256 44.256 0 0 0-8.608-15.392 211.008 211.008 0 0 0-19.872-22.112c-8.608-8.608-20.128-19.52-34.816-32s-24.608-21.76-32.576-28.096-16.64-12.448-22.72-16.64a55.232 55.232 0 0 0-16-7.328 58.784 58.784 0 0 0-13.792 0h-1.6v94.336a85.952 85.952 0 0 0 1.536 15.136 75.168 75.168 0 0 0 4.64 14.688l0.896 2.24z" fill="#F4C550" p-id="4520"></path><path d="M478.464 802.112a236.8 236.8 0 0 1 3.008-37.504h-164.192a56.576 56.576 0 0 1-41.408-16.8 53.248 53.248 0 0 1-17.088-37.952 58.4 58.4 0 0 1 58.496-58.08h215.328a235.456 235.456 0 0 1 317.824-41.6v-303.808h-138.112a82.208 82.208 0 0 1-45.056-11.584 99.392 99.392 0 0 1-30.976-28.352 126.848 126.848 0 0 1-17.504-37.216 149.536 149.536 0 0 1-5.632-37.216v-115.488h-360.576a79.552 79.552 0 0 0-42.848 11.584 149.824 149.824 0 0 0-35.2 28.352 140.8 140.8 0 0 0-24.608 37.216 104.704 104.704 0 0 0-8.96 41.408v626.656a87.008 87.008 0 0 0 12.32 44.32 159.072 159.072 0 0 0 30.56 37.216 175.264 175.264 0 0 0 39.84 26.496 91.328 91.328 0 0 0 37.216 10.016h260.8l0.832-0.832a234.432 234.432 0 0 1-44.064-136.832z m-202.528-363.776a56.416 56.416 0 0 1 41.344-16.768h354.368a58.4 58.4 0 0 1 42.144 16.8 55.008 55.008 0 0 1 17.504 40.992 53.952 53.952 0 0 1-17.504 40.576h-1.472a59.68 59.68 0 0 1-42.112 16.384h-352.928a57.824 57.824 0 0 1-41.408-16.384 53.888 53.888 0 0 1-17.088-40.576 55.584 55.584 0 0 1 17.152-41.024z" fill="#F4C550" p-id="4521"></path><path d="M704.8 792.128m-179.744 0a179.744 179.744 0 1 0 359.488 0 179.744 179.744 0 1 0-359.488 0Z" fill="#F4C550" p-id="4522"></path><path d="M678.4 769.504l-20.384 20.192-18.816 18.624-14.112 13.92-7.392 7.168a43.232 43.232 0 0 0-9.216 12.544 81.568 81.568 0 0 0-3.2 8.544l-4.256 12.992-4 13.44c-1.12 4.448-1.824 7.84-2.272 9.856a11.776 11.776 0 0 0 1.12 9.408c1.568 1.824 4.448 2.432 9.216 1.824a94.592 94.592 0 0 0 10.112-2.432 126.656 126.656 0 0 0 14.368-3.84c4.96-1.312 9.6-3.2 14.56-4.704l11.872-5.408 6.72-4 6.4-4.704 19.2-19.2 18.816-18.4 20.384-19.968 55.168-53.6-47.68-46.688-56.544 54.4z" fill="#FFFFFF" p-id="4523"></path><path d="M819.872 718.144a49.056 49.056 0 0 0-2.272-11.232 46.08 46.08 0 0 0-10.112-14.56 40.16 40.16 0 0 0-12.128-9.6 30.4 30.4 0 0 0-13.248-3.584 17.92 17.92 0 0 0-14.56 5.152l-7.168 6.016a84.768 84.768 0 0 1-7.584 6.72l48.192 46.624a26.208 26.208 0 0 0 4-3.392l4-4.256 5.152-5.152a16 16 0 0 0 5.664-12.8z" fill="#FFFFFF" p-id="4524"></path></svg>